HIERARCHY
ROOT hip
{
  OFFSET 0 0 0
  CHANNELS 6 Xposition Yposition Zposition Zrotation Yrotation Xrotation
  JOINT abdomen
  {
    OFFSET 0 20.6881 -0.73152
    CHANNELS 3 Zrotation Xrotation Yrotation
    JOINT chest
    {
      OFFSET 0 11.7043 -0.48768
      CHANNELS 3 Zrotation Xrotation Yrotation
      JOINT neck
      {
        OFFSET 0 22.1894 -2.19456
        CHANNELS 3 Zrotation Xrotation Yrotation
        JOINT head
        {
          OFFSET -0.24384 7.07133 1.2192
          CHANNELS 3 Zrotation Xrotation Yrotation
          JOINT leftEye
          {
            OFFSET 4.14528 8.04674 8.04672
            CHANNELS 3 Zrotation Xrotation Yrotation
            End Site
            {
              OFFSET 1 0 0
            }
          }
          JOINT rightEye
          {
            OFFSET -3.6576 8.04674 8.04672
            CHANNELS 3 Zrotation Xrotation Yrotation
            End Site
            {
              OFFSET 1 0 0
            }
          }
        }
      }
      JOINT rCollar
      {
        OFFSET -2.68224 19.2634 -4.8768
        CHANNELS 3 Zrotation Xrotation Yrotation
        JOINT rShldr
        {
          OFFSET -8.77824 -1.95073 1.46304
          CHANNELS 3 Zrotation Xrotation Yrotation
          JOINT rForeArm
          {
            OFFSET -28.1742 -1.7115 0.48768
            CHANNELS 3 Zrotation Xrotation Yrotation
            JOINT rHand
            {
              OFFSET -22.5879 0.773209 7.07136
              CHANNELS 3 Zrotation Xrotation Yrotation
              JOINT rThumb1
              {
                OFFSET -1.2192 -0.487915 3.41376
                CHANNELS 3 Zrotation Xrotation Yrotation
                JOINT rThumb2
                {
                  OFFSET -3.37035 -0.52449 3.41376
                  CHANNELS 3 Zrotation Xrotation Yrotation
                  End Site
                  {
                    OFFSET -1.78271 -1.18214 1.43049
                  }
                }
              }
              JOINT rIndex1
              {
                OFFSET -7.75947 0.938293 5.60832
                CHANNELS 3 Zrotation Xrotation Yrotation
                JOINT rIndex2
                {
                  OFFSET -2.54057 -0.884171 1.56538
                  CHANNELS 3 Zrotation Xrotation Yrotation
                  End Site
                  {
                    OFFSET -1.62519 -0.234802 1.16502
                  }
                }
              }
              JOINT rMid1
              {
                OFFSET -8.24714 1.18213 3.41376
                CHANNELS 3 Zrotation Xrotation Yrotation
                JOINT rMid2
                {
                  OFFSET -3.10165 -0.590103 1.0647
                  CHANNELS 3 Zrotation Xrotation Yrotation
                  End Site
                  {
                    OFFSET -2.48547 -0.328903 0.83742
                  }
                }
              }
              JOINT rRing1
              {
                OFFSET -8.82822 0.546677 1.51678
                CHANNELS 3 Zrotation Xrotation Yrotation
                JOINT rRing2
                {
                  OFFSET -2.60934 -0.819778 -0.0198488
                  CHANNELS 3 Zrotation Xrotation Yrotation
                  End Site
                  {
                    OFFSET -2.33842 -0.294052 0.168128
                  }
                }
              }
              JOINT rPinky1
              {
                OFFSET -8.27202 -0.0477905 -0.4584
                CHANNELS 3 Zrotation Xrotation Yrotation
                JOINT rPinky2
                {
                  OFFSET -1.82734 -0.647385 -0.700984
                  CHANNELS 3 Zrotation Xrotation Yrotation
                  End Site
                  {
                    OFFSET -1.69225 -0.51767 -0.607171
                  }
                }
              }
            }
          }
        }
      }
      JOINT lCollar
      {
        OFFSET 2.68224 19.2634 -4.8768
        CHANNELS 3 Zrotation Xrotation Yrotation
        JOINT lShldr
        {
          OFFSET 8.77824 -1.95073 1.46304
          CHANNELS 3 Zrotation Xrotation Yrotation
          JOINT lForeArm
          {
            OFFSET 28.1742 -1.7115 0.48768
            CHANNELS 3 Zrotation Xrotation Yrotation
            JOINT lHand
            {
              OFFSET 22.5879 0.773209 7.07136
              CHANNELS 3 Zrotation Xrotation Yrotation
              JOINT lThumb1
              {
                OFFSET 1.2192 -0.487915 3.41376
                CHANNELS 3 Zrotation Xrotation Yrotation
                JOINT lThumb2
                {
                  OFFSET 3.37035 -0.52449 3.41376
                  CHANNELS 3 Zrotation Xrotation Yrotation
                  End Site
                  {
                    OFFSET 1.78271 -1.18214 1.43049
                  }
                }
              }
              JOINT lIndex1
              {
                OFFSET 7.75947 0.938293 5.60832
                CHANNELS 3 Zrotation Xrotation Yrotation
                JOINT lIndex2
                {
                  OFFSET 2.54057 -0.884171 1.56538
                  CHANNELS 3 Zrotation Xrotation Yrotation
                  End Site
                  {
                    OFFSET 1.62519 -0.234802 1.16502
                  }
                }
              }
              JOINT lMid1
              {
                OFFSET 8.24714 1.18213 3.41376
                CHANNELS 3 Zrotation Xrotation Yrotation
                JOINT lMid2
                {
                  OFFSET 3.10165 -0.590103 1.0647
                  CHANNELS 3 Zrotation Xrotation Yrotation
                  End Site
                  {
                    OFFSET 2.48547 -0.328903 0.83742
                  }
                }
              }
              JOINT lRing1
              {
                OFFSET 8.82822 0.546677 1.51678
                CHANNELS 3 Zrotation Xrotation Yrotation
                JOINT lRing2
                {
                  OFFSET 2.60934 -0.819778 -0.0198488
                  CHANNELS 3 Zrotation Xrotation Yrotation
                  End Site
                  {
                    OFFSET 2.33842 -0.294052 0.168128
                  }
                }
              }
              JOINT lPinky1
              {
                OFFSET 8.27202 -0.0477905 -0.4584
                CHANNELS 3 Zrotation Xrotation Yrotation
                JOINT lPinky2
                {
                  OFFSET 1.82734 -0.647385 -0.700984
                  CHANNELS 3 Zrotation Xrotation Yrotation
                  End Site
                  {
                    OFFSET 1.69225 -0.51767 -0.607171
                  }
                }
              }
            }
          }
        }
      }
    }
  }
  JOINT rButtock
  {
    OFFSET -8.77824 4.35084 1.2192
    CHANNELS 3 Zrotation Xrotation Yrotation
    JOINT rThigh
    {
      OFFSET 0 -1.70687 -2.19456
      CHANNELS 3 Zrotation Xrotation Yrotation
      JOINT rShin
      {
        OFFSET 0 -36.8199 0.73152
        CHANNELS 3 Zrotation Xrotation Yrotation
        JOINT rFoot
        {
          OFFSET 0.73152 -45.1104 -5.12064
          CHANNELS 3 Zrotation Xrotation Yrotation
          End Site
          {
            OFFSET -1.1221 -3.69964 12.103
          }
        }
      }
    }
  }
  JOINT lButtock
  {
    OFFSET 8.77824 4.35084 1.2192
    CHANNELS 3 Zrotation Xrotation Yrotation
    JOINT lThigh
    {
      OFFSET 0 -1.70687 -2.19456
      CHANNELS 3 Zrotation Xrotation Yrotation
      JOINT lShin
      {
        OFFSET 0 -36.8199 0.73152
        CHANNELS 3 Zrotation Xrotation Yrotation
        JOINT lFoot
        {
          OFFSET -0.73152 -45.1104 -5.12064
          CHANNELS 3 Zrotation Xrotation Yrotation
          End Site
          {
            OFFSET 1.1221 -3.69964 12.103
          }
        }
      }
    }
  }
}
MOTION
Frames:	7
Frame Time:	0.00833333
292.647 83.6753 -5.08952 3.0669 -6.9882 3.7447 -13.4172 8.89684 11.397 -5.19972 0.870287 2.98258 7.19253 8.86483 7.93384 -2.64575 -3.12985 14.4287 -0.0 0.0 0.0 -0.0 0.0 0.0 -2.25649e-14 7.51418e-14 -7.73366e-14 89.4444 34.0602 -17.405 -18.1918 -10.8941 34.4525 -0.560125 -20.7704 -3.05551 -3.73782e-10 -5.49931e-11 -2.48881e-10 -6.41568e-10 -9.86719e-11 -4.37377e-10 -3.73776e-10 -5.4994e-11 -2.48898e-10 7.73091 5.47488 0.417314 -3.73786e-10 -5.49966e-11 -2.48879e-10 2.90554 0.965183 0.102902 -3.73778e-10 -5.49956e-11 -2.48879e-10 10.2786 0.731801 0.0259123 -3.73788e-10 -5.4991e-11 -2.48873e-10 2.22167 -0.733487 -0.20892 -2.27595e-14 7.51378e-14 -7.75303e-14 -66.5965 31.0855 -1.27979 15.041 -7.8258 -27.6732 0.0266273 -4.65622 0.655844 -2.93517e-10 1.47592e-10 -3.9428e-10 -5.07047e-10 2.55747e-10 -6.83402e-10 -2.93518e-10 1.47595e-10 -3.94272e-10 -7.73091 5.47488 -0.417314 -2.93514e-10 1.47598e-10 -3.9428e-10 -2.90554 0.965183 -0.102902 -2.93524e-10 1.47599e-10 -3.94277e-10 -10.2786 0.731801 -0.0259123 -2.93518e-10 1.47598e-10 -3.94281e-10 -2.22167 -0.733487 0.20892 -2.03217e-16 0.0 -3.88251e-19 13.1735 -4.86638 11.1428 0.00304028 26.2123 1.26248 -31.8435 -31.8049 -45.9178 2.03217e-16 0.0 3.88251e-19 -5.87966 -23.3424 0.330086 0.226829 34.4004 -0.660505 1.47457 -22.7563 2.92225
292.725 83.6981 -5.25779 3.0296 -7.3519 3.7747 -13.3677 8.99195 11.4955 -5.26655 0.813513 3.00544 7.08679 8.7904 7.90068 -2.48349 -3.26841 14.3708 -0.0 0.0 0.0 -0.0 0.0 0.0 -9.49304e-14 5.08947e-14 -9.05464e-14 89.3903 34.0365 -17.2942 -18.2284 -10.9344 34.5346 -0.556496 -20.7071 -3.04532 9.32271e-10 -5.84405e-10 -3.27196e-10 1.61823e-09 -1.01516e-09 -5.51961e-10 9.32277e-10 -5.84406e-10 -3.27215e-10 7.73091 5.47488 0.417314 9.32268e-10 -5.84409e-10 -3.27193e-10 2.90554 0.965183 0.102902 9.32275e-10 -5.84408e-10 -3.27193e-10 10.2786 0.731801 0.0259123 9.32265e-10 -5.84403e-10 -3.27187e-10 2.22167 -0.733487 -0.20892 -9.51139e-14 5.08815e-14 -9.07452e-14 -66.5003 31.2571 -1.29775 15.0078 -7.79703 -27.6046 0.0284424 -4.80853 0.677402 8.30305e-10 4.39394e-10 -6.35634e-10 1.4346e-09 7.61342e-10 -1.09876e-09 8.30304e-10 4.39396e-10 -6.35624e-10 -7.73091 5.47488 -0.417314 8.30309e-10 4.394e-10 -6.35631e-10 -2.90554 0.965183 -0.102902 8.30296e-10 4.394e-10 -6.35629e-10 -10.2786 0.731801 -0.0259123 8.30304e-10 4.394e-10 -6.35634e-10 -2.22167 -0.733487 0.20892 -2.03217e-16 0.0 -3.88251e-19 13.1636 -4.90308 11.415 0.00444353 26.0924 1.25611 -31.7354 -31.6772 -45.8979 2.03217e-16 0.0 3.88251e-19 -5.89283 -23.6296 0.104928 0.229809 34.6012 -0.666375 1.56266 -22.1553 3.16168
292.799 83.7682 -5.41034 3.165 -7.7699 3.7412 -13.3773 9.15398 11.542 -5.36895 0.753345 3.00988 7.0472 8.72802 7.88934 -2.39153 -3.47785 14.346 -0.0 0.0 0.0 -0.0 0.0 0.0 -1.54684e-13 8.37172e-15 -7.14452e-14 89.4136 34.0714 -17.1605 -18.283 -10.9945 34.6574 -0.549869 -20.5911 -3.02665 1.91684e-09 -9.28214e-10 -2.97291e-10 3.31962e-09 -1.60917e-09 -4.84468e-10 1.91684e-09 -9.28215e-10 -2.97309e-10 7.73091 5.47488 0.417314 1.91684e-09 -9.28218e-10 -2.9729e-10 2.90554 0.965183 0.102902 1.91684e-09 -9.28217e-10 -2.97289e-10 10.2786 0.731801 0.0259123 1.91683e-09 -9.28213e-10 -2.97283e-10 2.22167 -0.733487 -0.20892 -1.54865e-13 8.34958e-15 -7.16856e-14 -66.2899 31.4942 -1.35686 14.9613 -7.75695 -27.5088 0.0301038 -4.94595 0.696858 1.773e-09 6.41444e-10 -6.91128e-10 3.06358e-09 1.11143e-09 -1.19226e-09 1.773e-09 6.41446e-10 -6.91117e-10 -7.73091 5.47488 -0.417314 1.77301e-09 6.41449e-10 -6.91124e-10 -2.90554 0.965183 -0.102902 1.77299e-09 6.41449e-10 -6.91123e-10 -10.2786 0.731801 -0.0259123 1.773e-09 6.41449e-10 -6.9113e-10 -2.22167 -0.733487 0.20892 -2.03217e-16 0.0 -3.88251e-19 13.1112 -4.91907 11.6212 0.00584835 25.9794 1.24761 -31.5467 -31.3851 -45.9016 2.03217e-16 0.0 3.88251e-19 -5.98871 -23.9136 -0.401443 0.233885 34.8569 -0.672341 1.58604 -21.4822 3.26882
292.859 83.8579 -5.55352 3.2681 -8.1256 3.6868 -13.4224 9.35614 11.5569 -5.49776 0.690159 3.00318 7.04714 8.66488 7.8866 -2.31695 -3.7156 14.3323 -0.0 0.0 0.0 -0.0 0.0 0.0 -2.13682e-13 -5.07743e-14 -3.14577e-14 89.5055 34.1251 -17.0229 -18.3561 -11.0752 34.8229 -0.541212 -20.4376 -3.00202 2.85714e-09 -1.20992e-09 -2.0304e-10 4.94292e-09 -2.09483e-09 -3.06345e-10 2.85714e-09 -1.20992e-09 -2.03056e-10 7.73091 5.47488 0.417314 2.85714e-09 -1.20992e-09 -2.03044e-10 2.90554 0.965183 0.102902 2.85714e-09 -1.20992e-09 -2.03039e-10 10.2786 0.731801 0.0259123 2.85713e-09 -1.20992e-09 -2.03035e-10 2.22167 -0.733487 -0.20892 -2.13868e-13 -5.08059e-14 -3.17652e-14 -65.9988 31.8165 -1.4391 14.9047 -7.70825 -27.3925 0.0319184 -5.09139 0.717457 2.73244e-09 8.19162e-10 -6.39763e-10 4.72164e-09 1.41935e-09 -1.10038e-09 2.73244e-09 8.19165e-10 -6.39749e-10 -7.73091 5.47488 -0.417314 2.73244e-09 8.19165e-10 -6.3976e-10 -2.90554 0.965183 -0.102902 2.73243e-09 8.19165e-10 -6.3976e-10 -10.2786 0.731801 -0.0259123 2.73244e-09 8.19166e-10 -6.39769e-10 -2.22167 -0.733487 0.20892 -2.03217e-16 0.0 -3.88251e-19 13.0293 -4.92609 11.7681 0.00719591 25.8734 1.23738 -31.2905 -30.9798 -45.9109 2.03217e-16 0.0 3.88251e-19 -6.14903 -24.1956 -1.13114 0.2388 35.1532 -0.678436 1.56716 -20.745 3.28717
292.908 83.9249 -5.6713 3.1857 -8.3341 3.6432 -13.4756 9.56275 11.5735 -5.63139 0.629278 2.99673 7.06181 8.61882 7.89182 -2.28611 -3.97523 14.3319 -0.0 0.0 0.0 -0.0 0.0 0.0 -2.52265e-13 -9.9635e-14 4.05723e-15 89.6171 34.217 -16.8966 -18.4306 -11.1576 34.9928 -0.533309 -20.2952 -2.97924 3.49169e-09 -1.37532e-09 -1.08899e-10 6.03762e-09 -2.37938e-09 -1.33295e-10 3.49169e-09 -1.37532e-09 -1.08911e-10 7.73091 5.47488 0.417314 3.49169e-09 -1.37532e-09 -1.08907e-10 2.90554 0.965183 0.102902 3.49169e-09 -1.37532e-09 -1.089e-10 10.2786 0.731801 0.0259123 3.49168e-09 -1.37532e-09 -1.08898e-10 2.22167 -0.733487 -0.20892 -2.5246e-13 -9.96727e-14 3.68722e-15 -65.6939 32.1243 -1.52474 14.8461 -7.65787 -27.2722 0.0332576 -5.19577 0.732249 3.43377e-09 9.48472e-10 -5.58049e-10 5.9338e-09 1.64341e-09 -9.56609e-10 3.43376e-09 9.48475e-10 -5.58034e-10 -7.73091 5.47488 -0.417314 3.43377e-09 9.48473e-10 -5.58048e-10 -2.90554 0.965183 -0.102902 3.43376e-09 9.48473e-10 -5.58048e-10 -10.2786 0.731801 -0.0259123 3.43377e-09 9.48474e-10 -5.5806e-10 -2.22167 -0.733487 0.20892 -2.03217e-16 0.0 -3.88251e-19 12.9492 -4.91365 11.9072 0.00853452 25.7706 1.22704 -31.0302 -30.5861 -45.9112 2.03217e-16 0.0 3.88251e-19 -6.31026 -24.4521 -1.92021 0.244057 35.4592 -0.684046 1.50468 -20.0537 3.19655
292.986 83.9664 -5.76355 3.0984 -8.4611 3.5761 -13.51 9.73801 11.6246 -5.74818 0.576027 3.00189 7.06637 8.60769 7.90439 -2.32533 -4.2503 14.3468 -0.0 0.0 0.0 -0.0 0.0 0.0 -2.50769e-13 -1.11302e-13 9.74045e-15 89.6996 34.367 -16.7968 -18.49 -11.2234 35.1289 -0.528791 -20.2127 -2.96606 3.559e-09 -1.3702e-09 -7.9323e-11 6.15323e-09 -2.37004e-09 -8.10214e-11 3.559e-09 -1.37019e-09 -7.93326e-11 7.73091 5.47488 0.417314 3.559e-09 -1.37019e-09 -7.93326e-11 2.90554 0.965183 0.102902 3.559e-09 -1.3702e-09 -7.93246e-11 10.2786 0.731801 0.0259123 3.559e-09 -1.37019e-09 -7.9323e-11 2.22167 -0.733487 -0.20892 -2.5098e-13 -1.11338e-13 9.34288e-15 -65.4429 32.3186 -1.59342 14.7935 -7.61282 -27.1646 0.0334081 -5.21005 0.73427 3.60213e-09 1.0053e-09 -5.22498e-10 6.2251e-09 1.74195e-09 -8.94405e-10 3.60213e-09 1.0053e-09 -5.22482e-10 -7.73091 5.47488 -0.417314 3.60213e-09 1.0053e-09 -5.22498e-10 -2.90554 0.965183 -0.102902 3.60212e-09 1.0053e-09 -5.22498e-10 -10.2786 0.731801 -0.0259123 3.60213e-09 1.0053e-09 -5.22511e-10 -2.22167 -0.733487 0.20892 -2.03217e-16 0.0 -3.88251e-19 12.902 -4.87122 12.0899 0.0099234 25.6673 1.21823 -30.8294 -30.3275 -45.8853 2.03217e-16 0.0 3.88251e-19 -6.40417 -24.6625 -2.60276 0.249131 35.7441 -0.688532 1.39741 -19.518 2.97646
293.033 83.9927 -5.85195 3.1229 -8.7176 3.4801 -13.5312 9.88497 11.7329 -5.84963 0.524582 3.0244 7.05946 8.65676 7.93509 -2.49634 -4.57997 14.3966 -0.0 0.0 0.0 -0.0 0.0 0.0 -1.82165e-13 -6.3178e-14 -3.528e-14 89.7586 34.5844 -16.7281 -18.5305 -11.2686 35.2219 -0.527398 -20.1858 -2.96179 2.67369e-09 -1.09927e-09 -1.47831e-10 4.62453e-09 -1.90276e-09 -2.1368e-10 2.67369e-09 -1.09926e-09 -1.47839e-10 7.73091 5.47488 0.417314 2.67369e-09 -1.09926e-09 -1.47839e-10 2.90554 0.965183 0.102902 2.6737e-09 -1.09926e-09 -1.47833e-10 10.2786 0.731801 0.0259123 2.67369e-09 -1.09926e-09 -1.4783e-10 2.22167 -0.733487 -0.20892 -1.82418e-13 -6.32007e-14 -3.56523e-14 -65.253 32.3486 -1.65637 14.746 -7.5724 -27.0675 0.0314563 -5.06638 0.713902 2.92535e-09 9.20448e-10 -6.08615e-10 5.05626e-09 1.59526e-09 -1.04541e-09 2.92535e-09 9.2045e-10 -6.086e-10 -7.73091 5.47488 -0.417314 2.92536e-09 9.20447e-10 -6.08616e-10 -2.90554 0.965183 -0.102902 2.92535e-09 9.20448e-10 -6.08614e-10 -10.2786 0.731801 -0.0259123 2.92536e-09 9.20449e-10 -6.08628e-10 -2.22167 -0.733487 0.20892 -2.03217e-16 0.0 -3.88251e-19 12.886 -4.78948 12.3572 0.0116735 25.5481 1.21186 -30.7353 -30.2762 -45.8334 2.03217e-16 0.0 3.88251e-19 -6.38725 -24.8525 -3.1261 0.254545 36.0304 -0.691142 1.18438 -19.1295 2.47145
